<svg xmlns="http://www.w3.org/2000/svg" viewBox="0 0 512 512">
  <defs>
    <linearGradient id="bg" x1="0" x2="1" y1="0" y2="1">
      <stop offset="0%" stop-color="#7c4dff"/>
      <stop offset="55%" stop-color="#b388ff"/>
      <stop offset="100%" stop-color="#f6c453"/>
    </linearGradient>
    <radialGradient id="glow" cx="35%" cy="30%" r="70%">
      <stop offset="0%" stop-color="#ffffff" stop-opacity="0.9"/>
      <stop offset="100%" stop-color="#ffffff" stop-opacity="0"/>
    </radialGradient>
  </defs>

  <rect width="512" height="512" rx="128" fill="#0b1020"/>
  <circle cx="256" cy="256" r="190" fill="url(#bg)" opacity="0.18"/>
  <circle cx="195" cy="170" r="150" fill="url(#glow)" opacity="0.18"/>

  <path fill="#f7f8ff" d="M324 116c-65 18-113 78-113 149 0 87 70 157 157 157 17 0 34-3 49-8-25 34-65 56-111 56-76 0-138-62-138-138 0-100 90-176 189-216 4-2 8-2 12 0 5 2 7 6 7 11 0 4-2 8-6 10-18 9-33 19-46 30z"/>

  <g fill="#f6c453">
    <path d="M141 149l10 25 25 10-25 10-10 25-10-25-25-10 25-10z"/>
    <path d="M388 190l7 18 18 7-18 7-7 18-7-18-18-7 18-7z"/>
    <path d="M359 329l9 22 22 9-22 9-9 22-9-22-22-9 22-9z"/>
  </g>
</svg>
